<!-- icon666.com - MILLIONS vector ICONS FREE --><svg viewBox="-8 0 512 512" xmlns="http://www.w3.org/2000/svg"><path d="m493.832031 303.183594-57.359375-88.542969c-1.398437-2.160156-3.796875-3.464844-6.371094-3.464844h-120.34375c-6.238281-34.496093-24.035156-66.03125-50.582031-89.375-20.367187-17.90625-44.886719-30.058593-71.085937-35.53125 10.464844-9.007812 17.113281-22.335937 17.113281-37.195312 0-27.058594-22.015625-49.074219-49.074219-49.074219s-49.074218 22.015625-49.074218 49.074219c0 14.871093 6.65625 28.207031 17.136718 37.214843-31.652344 6.648438-60.863281 23.042969-83.050781 47.191407-2.835937 3.085937-2.632813 7.886719.453125 10.726562 3.085938 2.835938 7.890625 2.632813 10.726562-.453125 26.632813-28.980468 64.460938-45.601562 103.792969-45.605468h.015625.011719c34.273437.003906 67.304687 12.453124 93.007813 35.054687 23.273437 20.464844 39.09375 47.894531 45.148437 77.972656h-24.261719c-12.703125-52.132812-59.625-89.339843-113.910156-89.339843-64.652344 0-117.253906 52.601562-117.253906 117.253906s52.601562 117.253906 117.253906 117.253906c17.386719 0 34.609375-3.890625 50.210938-11.28125l14.621093 19.1875c-19.941406 10.339844-42.175781 15.78125-64.832031 15.78125-77.714844 0-140.941406-63.226562-140.941406-140.941406 0-26.648438 7.46875-52.589844 21.605468-75.019532 2.234376-3.546874 1.167969-8.234374-2.378906-10.472656-3.546875-2.234375-8.234375-1.167968-10.46875 2.378906-15.664062 24.855469-23.941406 53.597657-23.941406 83.113282 0 86.085937 70.039062 156.125 156.125 156.125 25.980469 0 51.46875-6.46875 74.15625-18.730469l100.972656 132.523437c1.433594 1.886719 3.667969 2.992188 6.039063 2.992188 2.367187 0 4.601562-1.105469 6.039062-2.992188l84.03125-110.292968c2.542969-3.335938 1.898438-8.097656-1.4375-10.640625-3.332031-2.539063-8.097656-1.898438-10.636719 1.4375l-58.382812 76.625 46.140625-151.234375h69.085937l-40.460937 53.109375c-2.542969 3.335937-1.898437 8.097656 1.4375 10.640625 3.332031 2.539062 8.097656 1.898437 10.636719-1.4375l49.753906-65.300782c1.941406-2.546874 2.074219-6.039062.332031-8.730468zm-337.703125-288c16.078125 0 29.5625 11.257812 33.023438 26.296875h-66.046875c3.457031-15.039063 16.945312-26.296875 33.023437-26.296875zm-33.023437 41.484375h66.046875c-3.457032 15.039062-16.941406 26.292969-33.011719 26.296875-.003906 0-.011719 0-.015625 0s-.007812 0-.011719 0c-16.070312-.007813-29.550781-11.257813-33.007812-26.296875zm79.347656 258.234375h69.082031l46.144532 151.234375zm120.503906-88.542969-43.789062 64.476563-23.792969-64.476563zm28.667969 0h67.582031l-23.792969 64.476563zm31.46875 73.359375h-91.601562l45.800781-67.4375zm-140.484375-64.09375 23.652344 64.097656h-65.175781zm144.5625 79.277344-49.878906 163.488281-49.878907-163.488281zm44.804687-79.277344 41.519532 64.097656h-65.175782zm-275.851562 105.535156c-56.28125 0-102.070312-45.789062-102.070312-102.070312s45.789062-102.066406 102.070312-102.066406c45.996094 0 85.925781 30.675781 98.214844 74.152343h-9.859375c-2.570313 0-4.972657 1.304688-6.371094 3.464844l-57.359375 88.542969c-1.742188 2.6875-1.609375 6.179687.332031 8.730468l15.820313 20.761719c-12.789063 5.5625-26.71875 8.484375-40.777344 8.484375zm0 0" fill='black'></path></svg>