<!-- icon666.com - MILLIONS vector ICONS FREE --><svg viewBox="0 -66 512 512" xmlns="http://www.w3.org/2000/svg"><path d="m276 50c0 5.523438-4.476562 10-10 10s-10-4.476562-10-10 4.476562-10 10-10 10 4.476562 10 10zm0 0"></path><path d="m482 80h-10v-50c0-16.542969-13.457031-30-30-30h-352c-16.542969 0-30 13.457031-30 30v110h-30c-16.542969 0-30 13.457031-30 30v180c0 16.542969 13.457031 30 30 30h100c16.542969 0 30-13.457031 30-30v-70h66v41c-9.539062 1.925781-18.308594 6.605469-25.351562 13.648438-9.445313 9.445312-14.648438 22-14.648438 35.351562 0 5.523438 4.476562 10 10 10h140c5.523438 0 10-4.476562 10-10 0-24.144531-17.203125-44.347656-40-48.992188v-41.007812h66v70c0 16.542969 13.457031 30 30 30h80c16.542969 0 30-13.457031 30-30v-240c0-16.542969-13.457031-30-30-30zm-402-20h146c5.523438 0 10-4.476562 10-10s-4.476562-10-10-10h-146v-10c0-5.515625 4.484375-10 10-10h352c5.515625 0 10 4.484375 10 10v10h-146c-5.523438 0-10 4.476562-10 10s4.476562 10 10 10h146v20h-50c-16.542969 0-30 13.457031-30 30v110h-212v-50c0-16.542969-13.457031-30-30-30h-50zm-60 140h120v120h-120zm10-40h100c5.515625 0 10 4.484375 10 10v10h-120v-10c0-5.515625 4.484375-10 10-10zm100 200h-100c-5.515625 0-10-4.484375-10-10v-10h120v10c0 5.515625-4.484375 10-10 10zm194.285156 0h-116.582031c1.46875-4.167969 3.867187-7.988281 7.089844-11.210938 5.667969-5.667968 13.199219-8.789062 21.207031-8.789062h60c13.035156 0 24.160156 8.359375 28.285156 20zm-38.285156-40h-40v-40h40zm-126-60v-20h212v20zm332 90c0 5.515625-4.484375 10-10 10h-80c-5.515625 0-10-4.484375-10-10v-240c0-5.515625 4.484375-10 10-10h80c5.515625 0 10 4.484375 10 10zm0 0" fill='black'></path><path d="m462 240h-40c-5.523438 0-10 4.476562-10 10v80c0 5.523438 4.476562 10 10 10h40c5.523438 0 10-4.476562 10-10v-80c0-5.523438-4.476562-10-10-10zm-10 80h-20v-60h20zm0 0" fill='black'></path><path d="m462 140h-40c-5.523438 0-10 4.476562-10 10s4.476562 10 10 10h40c5.523438 0 10-4.476562 10-10s-4.476562-10-10-10zm0 0" fill='black'></path><path d="m462 180h-40c-5.523438 0-10 4.476562-10 10s4.476562 10 10 10h40c5.523438 0 10-4.476562 10-10s-4.476562-10-10-10zm0 0" fill='black'></path></svg>