<!-- icon666.com - MILLIONS vector ICONS FREE --><svg id="Layer_1" enable-background="new 0 0 100 100" viewBox="0 0 100 100" xmlns="http://www.w3.org/2000/svg"><path d="m10 31.8330078v45.3334961c0 .3935547.2314453.7509766.5898438.9121094l15.2050781 6.833252v4.0876465c0 .5522461.4472656 1 1 1h46.4101562c.5527344 0 1-.4477539 1-1v-4.0876465l15.2050781-6.833252c.3583985-.1611328.5898438-.5185547.5898438-.9121094v-45.3334961c0-7.3757935-16.1165771-13.0862427-19.7539062-14.2810059l.0322266-.0563965c.2441406-.4277344.140625-.9692383-.2431641-1.2768555l-7.4921875-5.9926758c-.0214844-.0170898-.0439453-.0341797-.0664062-.0498047-.1787109-.1225586-.3837891-.1733398-.5791016-.1757812l-11.8964844-.0004882c-.0003662 0-.0006104.0001831-.0009766.0001831s-.0006104-.0001831-.0009766-.0001831l-11.8964844.0004883c-.1904297.0043945-.4003906.0532227-.5791016.1757812-.0224609.015625-.0449219.0327148-.0664062.0498047l-7.4921874 5.9926758c-.3837891.3076172-.4873047.8491211-.2431641 1.2768555l.0333252.0582886c-1.4077148.4699097-5.3771362 1.8619385-9.4083252 3.8855591-6.8652344 3.446289-10.3466797 6.9433593-10.3466797 10.3935546zm52.1259766-19.3793945 5.9912109 4.7924805-10.2421875 17.9248046-6.5917969-6.9228516zm-12.1269532-.4536133c.0003662 0 .0006104-.0001831.0009766-.0001831s.0006104.0001831.0009766.0001831l10.0097656.0004883-10.0107422 14.5834961-10.0107422-14.5834961zm-12.125.4536133 10.8427734 15.7944336-6.5917968 6.9228515-10.2421875-17.9248046zm3.1806641 24.8754883c.15625.2744141.4335938.4584961.7470703.496582.0410156.0048828.0810547.0073242.1210938.0073242.2714844 0 .5341797-.1108398.7246094-.3105469l7.352539-7.7214355 7.3525391 7.7214355c.1904297.199707.4521484.3105469.7246094.3105469.0400391 0 .0800781-.0024414.1210938-.0073242.3134766-.0380859.5908203-.222168.7470703-.496582l10.2869873-18.0029297c5.3383788 1.6982422 18.7677001 7.1335449 18.7677001 12.5068359v44.6865234l-13.7949219 6.1994629v-17.3435058c0-2.2792969.7441406-4.3818359 2.0947266-5.9199219 1.9404297-2.2070312 3.0097656-5.0957031 3.0097656-8.1328125 0-3.6977539-.7900391-6.6757812-2.4873047-9.3710938-1.2451172-1.9775391-1.9033203-4.159668-1.9033203-6.3105469 0-.5522461-.4472656-1-1-1s-1 .4477539-1 1c0 2.5283203.7646484 5.0791016 2.2099609 7.3759766 1.5078125 2.3945312 2.1806641 4.9560547 2.1806641 8.3056641 0 2.5507812-.8916016 4.9702148-2.5117188 6.8129883-1.671875 1.9033203-2.5927734 4.4746094-2.5927734 7.2397461v22.6240234h-44.4101562v-22.6240234c0-2.7651367-.9208984-5.3364258-2.5927734-7.2402344-1.6201172-1.8422852-2.5117188-4.2617188-2.5117188-6.8125 0-4.4956055.9033203-6.2783203 2.1806641-8.3056641 1.4453125-2.296875 2.2099609-4.8476562 2.2099609-7.3759766 0-.5522461-.4472656-1-1-1s-1 .4477539-1 1c0 2.1508789-.6582031 4.3330078-1.9033203 6.3105469-1.6494141 2.6201172-2.4873047 4.7890625-2.4873047 9.3710938 0 3.0371094 1.0693359 5.9257812 3.0097656 8.1323242 1.3505859 1.5385742 2.0947266 3.6411133 2.0947266 5.9204102v17.3435059l-13.7949219-6.199463v-44.6865234c0-5.3689575 13.4293823-10.8070679 18.7677002-12.5067749z"></path><path d="m50 38.7626953c.5527344 0 1-.4477539 1-1v-2.121582c0-.5522461-.4472656-1-1-1s-1 .4477539-1 1v2.121582c0 .5522461.4472656 1 1 1z"></path><path d="m50 46.5268555c.5527344 0 1-.4477539 1-1v-2.1210938c0-.5522461-.4472656-1-1-1s-1 .4477539-1 1v2.1210938c0 .5522461.4472656 1 1 1z"></path><path d="m50 54.2915039c.5527344 0 1-.4477539 1-1v-2.1210938c0-.5522461-.4472656-1-1-1s-1 .4477539-1 1v2.1210938c0 .5522461.4472656 1 1 1z"></path><path d="m50 62.0561523c.5527344 0 1-.4477539 1-1v-2.121582c0-.5522461-.4472656-1-1-1s-1 .4477539-1 1v2.121582c0 .5522461.4472656 1 1 1z"></path><path d="m50 69.8203125c.5527344 0 1-.4477539 1-1v-2.1210938c0-.5522461-.4472656-1-1-1s-1 .4477539-1 1v2.1210938c0 .5522461.4472656 1 1 1z"></path><path d="m50 77.5849609c.5527344 0 1-.4477539 1-1v-2.1210938c0-.5522461-.4472656-1-1-1s-1 .4477539-1 1v2.1210938c0 .5522461.4472656 1 1 1z"></path><path d="m50 85.3496094c.5527344 0 1-.4477539 1-1v-2.121582c0-.5522461-.4472656-1-1-1s-1 .4477539-1 1v2.121582c0 .5522461.4472656 1 1 1z" fill="black"></path></svg>